<?xml version="1.0" standalone="no"?><!DOCTYPE svg PUBLIC "-//W3C//DTD SVG 1.1//EN" "http://www.w3.org/Graphics/SVG/1.1/DTD/svg11.dtd"><svg t="1594696958296" class="icon" viewBox="0 0 1025 1024" version="1.1" xmlns="http://www.w3.org/2000/svg" p-id="6173" xmlns:xlink="http://www.w3.org/1999/xlink" width="30" height="30"><defs><style type="text/css"></style></defs><path d="M417.13056 169.6l-3.2 67.2h-272V288H417.13056v89.6H189.93056v48l230.4-3.2 230.4-3.2-3.2 16c-9.6 41.6-54.4 147.2-64 150.4-6.4 0-38.4-6.4-76.8-16-115.2-35.2-172.8-44.8-249.6-44.8-80 0-131.2 16-179.2 51.2-96 70.4-105.6 204.8-16 278.4 96 80 249.6 86.4 393.6 19.2C506.73056 848 596.33056 784 625.13056 748.8l16-12.8 38.4 19.2c38.4 19.2 281.6 131.2 323.2 150.4l22.4 9.6v-176l-60.8-16c-54.4-16-195.2-57.6-240-76.8l-16-6.4 22.4-48c25.6-48 73.6-185.6 73.6-204.8 0-9.6-12.8-9.6-121.6-9.6H561.13056V288h291.2v-44.8c0-3.2-64-3.2-144-3.2h-144V102.4H417.13056v67.2z m-28.8 448c35.2 12.8 83.2 32 105.6 44.8l41.6 22.4-22.4 25.6c-12.8 16-41.6 41.6-64 57.6-80 57.6-150.4 80-246.4 76.8-99.2-6.4-150.4-44.8-156.8-121.6-3.2-44.8 6.4-73.6 38.4-96 41.6-28.8 73.6-38.4 160-35.2 67.2 3.2 89.6 6.4 144 25.6z" fill="#ffffff" p-id="6174"></path></svg>